<?xml version="1.0" encoding="UTF-8" standalone="no"?>
<!-- Generator: Adobe Illustrator 19.0.0, SVG Export Plug-In . SVG Version: 6.00 Build 0)  -->

<svg
   xmlns:dc="http://purl.org/dc/elements/1.1/"
   xmlns:cc="http://creativecommons.org/ns#"
   xmlns:rdf="http://www.w3.org/1999/02/22-rdf-syntax-ns#"
   xmlns:svg="http://www.w3.org/2000/svg"
   xmlns="http://www.w3.org/2000/svg"
   xmlns:sodipodi="http://sodipodi.sourceforge.net/DTD/sodipodi-0.dtd"
   xmlns:inkscape="http://www.inkscape.org/namespaces/inkscape"
   version="1.1"
   id="Layer_1"
   x="0px"
   y="0px"
   viewBox="0 0 512 512"
   style="enable-background:new 0 0 512 512;"
   xml:space="preserve"
   sodipodi:docname="tindercat3.svg"
   inkscape:version="0.92.3 (2405546, 2018-03-11)"><metadata
   id="metadata90"><rdf:RDF><cc:Work
       rdf:about=""><dc:format>image/svg+xml</dc:format><dc:type
         rdf:resource="http://purl.org/dc/dcmitype/StillImage" /><dc:title></dc:title></cc:Work></rdf:RDF></metadata><defs
   id="defs88" /><sodipodi:namedview
   pagecolor="#ffffff"
   bordercolor="#666666"
   borderopacity="1"
   objecttolerance="10"
   gridtolerance="10"
   guidetolerance="10"
   inkscape:pageopacity="0"
   inkscape:pageshadow="2"
   inkscape:window-width="1920"
   inkscape:window-height="1017"
   id="namedview86"
   showgrid="false"
   inkscape:zoom="0.828125"
   inkscape:cx="-207.77454"
   inkscape:cy="171.77233"
   inkscape:window-x="-8"
   inkscape:window-y="-8"
   inkscape:window-maximized="1"
   inkscape:current-layer="Layer_1" />
<path
   style="fill:#ff6647;stroke:none"
   d="m 387.51206,109.83809 c -38.509,-51.819996 -83.278,-83.647996 -104.793,-98.942996 -2.876,-2.045 -5.711,-4.149 -8.592,-6.184 -2.314,-1.635 -4.832,-2.737 -7.712,-2.124 -4.877,1.038 -8,6.313 -6.511,11.081 21.208,67.867 8.505,133.557996 -40.027,205.743996 -13.849,-28.726 -21.115,-55.53 -21.115,-78.159 0,-5.216 -4.78,-9.347 -9.945,-8.585 -2.525,0.373 -4.193,1.883 -6.05201,3.47 -2.149,1.833 -4.363,3.591 -6.564,5.361 -29.431,23.681 -107.610997,86.582 -107.610997,190.674 0,48.29 20.572,94.126 57.924997,129.065 36.128,33.794 84.60301,53.177 132.99501,53.177 63.426,0 115.435,-18.456 150.406,-53.373 32.182,-32.13 49.192,-76.692 49.192,-128.869 0,-83.599 -24.089,-158.403 -71.596,-222.335 z"
   id="path51"
   inkscape:connector-curvature="0" />

<g
   id="g55">
</g>
<g
   id="g57">
</g>
<g
   id="g59">
</g>
<g
   id="g61">
</g>
<g
   id="g63">
</g>
<g
   id="g65">
</g>
<g
   id="g67">
</g>
<g
   id="g69">
</g>
<g
   id="g71">
</g>
<g
   id="g73">
</g>
<g
   id="g75">
</g>
<g
   id="g77">
</g>
<g
   id="g79">
</g>
<g
   id="g81">
</g>
<g
   id="g83">
</g>
<path
   style="fill:#ffcc95;fill-opacity:1;stroke:none;stroke-width:1.20754719"
   d="m 223.1858,326.88987 c -13.49176,-2.36783 -24.36257,-16.40661 -26.50878,-34.23393 -2.4281,-20.16883 5.67099,-39.45379 19.64493,-46.77711 6.26903,-3.28541 17.67672,-3.53734 23.34047,-0.51547 22.53882,12.0255 27.87181,50.86427 9.80287,71.39167 -7.79035,8.8503 -15.86191,11.96315 -26.27949,10.13484 z"
   id="path3879"
   inkscape:connector-curvature="0" /><path
   style="fill:#ffcc95;fill-opacity:1;stroke:none;stroke-width:1.20754719;stroke-opacity:1"
   d="m 162.57645,374.26372 c -5.98667,-1.15037 -14.45964,-6.32731 -19.20911,-11.73666 -8.83798,-10.0659 -14.10322,-27.18928 -12.09925,-39.34863 1.43697,-8.71897 2.84936,-11.97526 7.48352,-17.25327 19.68033,-22.41466 57.00347,6.30206 53.73145,41.34141 -1.22898,13.16085 -8.93556,24.24883 -18.31094,26.34517 -6.52475,1.45894 -7.19889,1.49685 -11.59567,0.65198 z"
   id="path3881"
   inkscape:connector-curvature="0" /><path
   style="fill:#ffcc95;fill-opacity:1;stroke:none;stroke-width:1.20754719"
   d="m 305.79477,323.59554 c -6.27141,-1.59051 -11.03363,-4.68092 -16.12335,-10.46315 -22.38874,-25.43495 -8.21229,-73.68644 21.60471,-73.53464 19.95308,0.10157 34.19135,22.82957 31.14732,49.71926 -2.4751,21.86398 -20.19447,38.44645 -36.62868,34.27853 z"
   id="path3883"
   inkscape:connector-curvature="0" /><path
   style="fill:#ffcc95;fill-opacity:1;stroke:none;stroke-width:1.20754719"
   d="m 365.8637,373.01417 c -17.48371,-4.13456 -25.62257,-27.6323 -17.21593,-49.70422 6.98651,-18.34331 24.2991,-30.44242 37.83743,-26.44313 19.50073,5.7606 26.058,32.15897 13.90531,55.98022 -7.19268,14.09881 -22.46516,23.01948 -34.52681,20.16713 z"
   id="path3885"
   inkscape:connector-curvature="0" /><path
   style="fill:#ffcc95;fill-opacity:1;stroke:none;stroke-width:1.20754719"
   d="m 294.69211,473.92401 c -20.95046,-9.55483 -26.50552,-9.68748 -48.06716,-1.14782 -10.18319,4.03313 -12.69238,4.55036 -22.33962,4.60493 -9.32263,0.0528 -11.84234,-0.39533 -17.72093,-3.15111 -22.21465,-10.41382 -33.26042,-37.58197 -23.89119,-58.76267 1.31655,-2.97628 5.34004,-8.99659 8.9411,-13.37847 10.32793,-12.56736 47.86498,-49.09579 53.19932,-51.76986 16.61061,-8.32678 35.00817,-8.23103 49.49289,0.25758 8.82193,5.17 52.15488,50.27323 60.87291,63.35975 4.22054,6.33539 4.36334,6.92029 4.75611,19.47961 0.37197,11.89415 0.14953,13.48798 -2.73269,19.58049 -4.65708,9.84425 -11.65993,17.10849 -20.85823,21.63681 -6.92079,3.40709 -9.40485,3.96736 -18.9553,4.27529 -10.75599,0.34681 -11.24087,0.24033 -22.69721,-4.98453 z"
   id="path4694"
   inkscape:connector-curvature="0" /></svg>